<svg width="524" height="160" viewBox="0 0 524 160" fill="none" xmlns="http://www.w3.org/2000/svg">
<rect width="524" height="160" rx="10" fill="#E0EBFE"/>
<path d="M286.889 55.1111H237.111C236.168 55.1111 235.264 55.4857 234.597 56.1525C233.93 56.8193 233.556 57.7237 233.556 58.6667V101.333C233.556 102.276 233.93 103.181 234.597 103.847C235.264 104.514 236.168 104.889 237.111 104.889H286.889C287.832 104.889 288.736 104.514 289.403 103.847C290.07 103.181 290.445 102.276 290.445 101.333V58.6667C290.445 57.7237 290.07 56.8193 289.403 56.1525C288.736 55.4857 287.832 55.1111 286.889 55.1111ZM245.858 62.2222C246.913 62.2222 247.944 62.535 248.821 63.1211C249.698 63.7071 250.382 64.54 250.785 65.5146C251.189 66.4891 251.295 67.5615 251.089 68.596C250.883 69.6306 250.375 70.5809 249.629 71.3268C248.883 72.0727 247.933 72.5806 246.898 72.7864C245.864 72.9922 244.791 72.8866 243.817 72.4829C242.842 72.0793 242.009 71.3957 241.423 70.5186C240.837 69.6415 240.525 68.6104 240.525 67.5556C240.525 66.1411 241.086 64.7845 242.087 63.7843C243.087 62.7841 244.443 62.2222 245.858 62.2222ZM240.667 96V88.7111L251.333 77.9022C251.667 77.5711 252.117 77.3853 252.587 77.3853C253.056 77.3853 253.507 77.5711 253.84 77.9022L258.445 82.4L244.791 96H240.667ZM283.333 96H249.822L260.898 84.9244L270.498 75.3244C270.831 74.9933 271.282 74.8075 271.751 74.8075C272.221 74.8075 272.671 74.9933 273.005 75.3244L283.333 85.6533V96Z" fill="white"/>
</svg>
